<?xml version="1.0" standalone="no"?>
<!DOCTYPE svg PUBLIC "-//W3C//DTD SVG 20010904//EN"
 "http://www.w3.org/TR/2001/REC-SVG-20010904/DTD/svg10.dtd">
<svg version="1.0" xmlns="http://www.w3.org/2000/svg"
 width="300.000000pt" height="300.000000pt" viewBox="0 0 300.000000 300.000000"
 preserveAspectRatio="xMidYMid meet">
<metadata>
Created by potrace 1.10, written by Peter Selinger 2001-2011
</metadata>
<g transform="translate(0.000000,300.000000) scale(0.100000,-0.100000)"
fill="#000000" stroke="none">
<path d="M1350 2852 c-63 -37 -122 -71 -130 -75 -8 -4 -28 -16 -45 -27 -16
-11 -37 -23 -45 -27 -8 -3 -46 -25 -85 -48 -150 -90 -271 -161 -295 -172 -14
-7 -41 -22 -60 -34 -255 -155 -355 -210 -373 -207 -22 3 -22 7 -27 218 l-5
215 -90 0 -90 0 -3 -389 c-2 -367 -1 -388 15 -382 10 4 86 47 168 95 356 209
513 301 555 324 25 14 91 52 148 86 57 34 105 61 107 61 2 0 72 41 156 91 239
142 219 137 323 80 39 -21 105 -57 146 -79 183 -97 230 -122 310 -164 78 -42
149 -79 305 -163 33 -18 101 -54 150 -80 140 -74 237 -126 277 -148 20 -11 43
-17 51 -14 20 7 91 137 81 147 -12 10 -112 65 -369 200 -55 29 -113 60 -130
70 -16 10 -70 39 -120 65 -162 86 -219 117 -270 145 -27 15 -99 54 -160 85
-60 32 -135 71 -165 88 -71 39 -203 107 -210 107 -3 0 -57 -31 -120 -68z"/>
<path d="M1345 2054 c-215 -13 -485 -113 -610 -226 -88 -81 -99 -108 -99 -243
0 -130 7 -150 90 -223 124 -111 347 -193 620 -228 108 -14 146 -15 220 -5 228
28 215 26 344 67 204 64 354 164 401 269 23 51 25 173 4 236 -49 144 -265 271
-565 333 -76 16 -295 26 -405 20z"/>
<path d="M640 1030 c0 -105 12 -137 83 -216 30 -33 74 -65 137 -98 96 -50 120
-59 230 -81 36 -7 88 -18 115 -25 80 -18 474 -15 566 5 41 9 106 23 144 32
184 39 360 172 398 299 18 63 23 159 9 168 -5 3 -65 -23 -133 -57 -68 -35
-158 -74 -199 -86 -41 -13 -85 -27 -96 -31 -12 -5 -43 -11 -70 -15 -27 -4 -81
-13 -121 -21 -118 -23 -344 -18 -498 10 -201 38 -245 51 -363 106 -35 17 -65
30 -67 30 -2 0 -30 16 -62 35 -32 19 -61 35 -65 35 -5 0 -8 -41 -8 -90z"/>
<path d="M640 524 c0 -88 26 -140 110 -224 69 -69 196 -140 310 -175 30 -9 66
-21 80 -26 31 -11 209 -30 350 -36 218 -10 507 73 673 194 68 50 130 136 150
209 33 118 18 144 -54 96 -68 -46 -153 -88 -221 -111 -35 -12 -72 -25 -83 -30
-76 -33 -310 -64 -475 -65 -109 0 -325 24 -402 44 -148 38 -221 69 -354 148
-39 23 -74 42 -78 42 -3 0 -6 -30 -6 -66z"/>
</g>
</svg>
