<?xml version="1.0" standalone="no"?>
<!DOCTYPE svg PUBLIC "-//W3C//DTD SVG 20010904//EN"
 "http://www.w3.org/TR/2001/REC-SVG-20010904/DTD/svg10.dtd">
<svg version="1.0" xmlns="http://www.w3.org/2000/svg"
 width="158.000000pt" height="132.000000pt" viewBox="0 0 158.000000 132.000000"
 preserveAspectRatio="xMidYMid meet">
<metadata>
Created by potrace 1.10, written by Peter Selinger 2001-2011
</metadata>
<g transform="translate(0.000000,132.000000) scale(0.050000,-0.050000)"
fill="#000000" stroke="none">
<path d="M1455 1969 c-30 -17 -106 -66 -168 -109 -118 -83 -158 -86 -139 -11
13 51 -31 124 -63 104 -22 -14 -21 -264 2 -286 16 -16 153 50 153 74 0 10 18
19 40 19 22 0 40 7 40 16 0 10 64 46 142 81 l142 64 181 -92 c100 -50 206
-108 236 -130 66 -47 86 -48 118 -10 24 28 -33 111 -76 111 -10 0 -98 45 -195
100 -194 108 -305 127 -413 69z"/>
<path d="M1356 1636 c-282 -164 142 -386 474 -247 129 54 138 168 19 246 -97
64 -383 65 -493 1z"/>
<path d="M1280 1290 c-115 -138 414 -210 610 -82 124 81 49 136 -100 72 -117
-50 -261 -51 -389 -2 -79 30 -104 33 -121 12z"/>
<path d="M1810 1078 c-93 -47 -333 -45 -445 3 -137 59 -134 -54 3 -120 215
-104 646 2 562 139 -17 27 -27 25 -120 -22z"/>
</g>
</svg>
