<?xml version="1.0" standalone="no"?>
<!DOCTYPE svg PUBLIC "-//W3C//DTD SVG 20010904//EN"
 "http://www.w3.org/TR/2001/REC-SVG-20010904/DTD/svg10.dtd">
<svg version="1.0" xmlns="http://www.w3.org/2000/svg"
 width="900.000000pt" height="978.000000pt" viewBox="0 0 900.000000 978.000000"
 preserveAspectRatio="xMidYMid meet">
<metadata>
Created by potrace 1.10, written by Peter Selinger 2001-2011
</metadata>
<g transform="translate(0.000000,978.000000) scale(0.100000,-0.100000)"
fill="#000000" stroke="none">
<path d="M4639 9536 c-2 -2 -92 -7 -199 -10 -323 -10 -421 -16 -500 -31 -134
-24 -273 -45 -360 -54 -81 -9 -277 -58 -316 -79 -26 -14 -108 -44 -244 -87
-161 -51 -255 -88 -356 -140 -49 -25 -95 -45 -104 -45 -17 -1 -128 -55 -312
-154 -83 -45 -146 -87 -184 -123 -31 -30 -74 -66 -95 -79 -21 -13 -60 -43 -87
-66 -27 -24 -73 -59 -102 -78 -28 -19 -75 -56 -103 -82 -27 -27 -55 -48 -60
-48 -10 0 -122 -85 -167 -126 -109 -99 -320 -337 -320 -359 0 -4 -17 -25 -37
-46 -20 -20 -53 -66 -72 -102 -20 -35 -52 -85 -72 -111 -19 -26 -53 -82 -74
-124 -22 -42 -59 -101 -83 -131 -39 -48 -142 -246 -142 -272 0 -6 -16 -37 -35
-68 -38 -61 -78 -162 -89 -226 -4 -22 -27 -101 -50 -175 -63 -197 -94 -345
-110 -530 -4 -36 -11 -101 -16 -145 -45 -366 -60 -562 -50 -630 4 -27 8 -99 9
-160 1 -60 6 -164 11 -230 5 -66 12 -160 14 -210 3 -49 10 -128 16 -175 19
-145 28 -212 39 -295 6 -44 17 -102 25 -130 8 -27 22 -79 31 -115 9 -36 21
-72 26 -80 14 -22 44 -123 95 -317 10 -39 36 -92 71 -144 30 -45 66 -112 81
-148 15 -36 41 -89 59 -118 18 -29 33 -55 33 -59 0 -4 12 -22 26 -41 14 -18
36 -58 50 -89 15 -34 46 -76 78 -107 29 -29 67 -72 83 -97 17 -25 54 -67 82
-93 28 -26 51 -51 51 -55 0 -4 37 -48 83 -98 45 -50 98 -109 117 -130 20 -21
79 -79 133 -129 54 -49 133 -125 175 -168 43 -42 83 -77 90 -77 6 0 36 -21 66
-47 29 -27 82 -70 117 -98 35 -27 71 -58 79 -67 8 -9 31 -25 50 -36 91 -51
159 -94 200 -127 25 -20 96 -63 158 -95 63 -32 121 -65 130 -73 10 -7 58 -35
107 -62 50 -26 109 -61 132 -78 42 -30 213 -80 431 -127 51 -10 123 -33 161
-50 38 -16 75 -30 83 -30 29 0 232 -54 375 -100 143 -46 162 -50 343 -64 105
-9 202 -22 214 -28 13 -7 43 -31 67 -52 39 -36 44 -47 60 -122 12 -56 18 -128
18 -227 0 -120 4 -151 20 -189 22 -51 53 -78 91 -78 45 0 310 61 365 85 121
51 260 124 359 188 61 40 140 85 176 101 36 15 100 47 143 72 42 24 101 54
130 65 48 19 111 63 164 115 11 12 38 32 60 45 21 12 78 52 127 88 49 37 109
77 132 91 77 46 259 178 305 222 25 24 81 83 125 132 43 48 91 94 106 102 15
8 64 50 110 94 46 44 106 96 133 114 73 49 224 217 320 356 32 47 76 103 96
125 137 145 254 307 399 551 25 41 64 99 87 128 24 29 61 92 83 140 22 47 52
106 67 129 15 23 51 94 80 157 29 63 68 133 86 155 47 56 53 69 82 181 15 55
42 144 62 199 42 121 79 283 93 419 6 56 20 166 31 246 12 91 21 236 24 390 3
135 9 271 14 303 10 72 3 411 -10 487 -5 30 -20 161 -34 290 -27 256 -43 338
-79 415 -38 81 -75 175 -95 246 -19 68 -70 169 -102 205 -11 11 -19 27 -19 35
0 8 -9 28 -20 46 -10 18 -27 58 -36 90 -9 32 -27 76 -40 99 -13 22 -24 47 -24
55 0 8 -18 41 -40 74 -22 33 -47 81 -56 107 -8 26 -35 69 -58 95 -23 26 -46
55 -49 63 -10 20 -55 88 -95 141 -112 151 -142 188 -188 238 -27 31 -66 76
-85 101 -39 52 -107 125 -236 258 -51 52 -93 98 -93 103 0 4 -30 29 -67 55
-38 26 -82 62 -98 79 -17 17 -53 44 -80 60 -28 16 -70 46 -94 67 -25 21 -63
47 -85 57 -48 22 -162 95 -227 146 -31 24 -86 50 -165 77 -66 22 -126 46 -134
52 -16 13 -58 31 -155 66 -86 31 -124 48 -175 78 -42 25 -98 45 -160 58 -14 3
-61 16 -105 29 -44 13 -104 31 -134 39 -29 9 -57 14 -61 11 -5 -3 -26 1 -47 9
-49 18 -248 54 -333 59 -126 8 -433 40 -496 53 -12 2 -23 2 -25 0z m-74 -3055
c218 -83 295 -116 330 -141 69 -51 117 -81 164 -107 25 -13 55 -32 66 -42 11
-10 52 -41 92 -67 39 -27 96 -72 125 -101 51 -48 86 -71 168 -107 19 -9 59
-41 89 -71 29 -30 72 -63 96 -74 23 -11 71 -44 106 -74 81 -68 179 -137 194
-137 7 0 34 -22 61 -49 27 -26 63 -55 79 -64 17 -8 68 -50 115 -92 47 -42 116
-92 153 -112 40 -21 82 -53 100 -76 18 -21 57 -52 88 -68 31 -15 85 -53 120
-84 35 -31 98 -74 139 -96 94 -51 108 -62 146 -124 47 -75 59 -132 45 -206
-15 -76 -39 -115 -90 -150 -39 -25 -73 -32 -221 -45 -142 -11 -461 8 -610 37
-30 6 -90 29 -133 50 -42 22 -122 57 -176 78 -55 21 -121 54 -148 73 -26 20
-86 54 -133 78 -86 42 -124 67 -182 120 -18 17 -36 30 -40 30 -15 0 -142 63
-163 81 -11 9 -56 36 -100 59 -119 63 -145 80 -196 124 -43 38 -227 126 -263
126 -8 0 -36 9 -63 21 -39 17 -60 20 -112 14 -35 -3 -76 -14 -90 -23 -14 -10
-44 -24 -66 -31 -77 -25 -249 -113 -294 -151 -25 -21 -62 -46 -81 -55 -19 -10
-59 -41 -90 -70 -30 -28 -76 -62 -101 -74 -26 -12 -60 -34 -75 -49 -41 -38
-101 -75 -207 -128 -51 -26 -101 -54 -112 -64 -27 -24 -143 -90 -160 -90 -7 0
-39 -20 -72 -44 -93 -70 -308 -136 -438 -136 -79 1 -190 27 -258 62 -59 30
-181 146 -207 197 -56 110 -66 404 -25 722 14 107 28 210 30 230 5 38 42 143
76 217 24 52 115 142 144 142 11 0 49 -7 85 -16 51 -12 103 -14 237 -10 132 4
190 1 245 -10 50 -11 102 -14 163 -10 85 5 226 34 242 49 3 4 14 7 23 7 10 0
23 6 29 14 7 8 25 18 41 21 16 4 45 17 63 29 19 13 52 29 73 36 75 24 129 59
172 109 24 28 58 57 75 65 18 7 63 39 100 70 38 31 73 56 78 56 5 0 42 24 82
54 94 71 140 94 207 103 72 11 202 -2 265 -26z"/>
</g>
</svg>
