<?xml version="1.0" standalone="no"?>
<!DOCTYPE svg PUBLIC "-//W3C//DTD SVG 20010904//EN"
 "http://www.w3.org/TR/2001/REC-SVG-20010904/DTD/svg10.dtd">
<svg version="1.0" xmlns="http://www.w3.org/2000/svg"
 width="315.000000pt" height="333.000000pt" viewBox="0 0 315.000000 333.000000"
 preserveAspectRatio="xMidYMid meet">
<metadata>
Created by potrace 1.10, written by Peter Selinger 2001-2011
</metadata>
<g transform="translate(0.000000,333.000000) scale(0.100000,-0.100000)"
fill="#000000" stroke="none">
<path d="M446 3013 c-47 -12 -96 -57 -121 -109 l-25 -53 0 -1021 c0 -1019 0
-1021 21 -1063 26 -52 55 -84 94 -105 26 -15 91 -18 543 -22 l514 -5 30 -35
c121 -142 245 -210 462 -254 104 -21 359 -22 453 -1 247 55 405 150 470 283
l28 57 3 435 c4 494 1 520 -59 605 -60 82 -225 180 -341 201 -18 4 -58 13 -88
22 -81 24 -425 23 -493 -1 -26 -9 -73 -18 -104 -19 -52 -3 -58 -1 -70 22 -10
19 -13 127 -13 470 -1 438 -1 446 -23 489 -12 25 -39 59 -60 75 l-39 31 -581
1 c-320 1 -591 0 -601 -3z m1102 -175 c9 -9 12 -141 12 -533 l0 -521 -26 -35
c-54 -70 -58 -92 -64 -292 -5 -172 -7 -190 -24 -203 -16 -11 -87 -14 -385 -15
-551 -3 -542 -3 -558 13 -12 13 -14 130 -13 793 0 550 4 782 11 792 16 18
1029 19 1047 1z m780 -1053 c137 -17 188 -32 282 -82 81 -43 99 -59 117 -100
25 -62 -15 -117 -122 -171 -78 -38 -152 -58 -300 -77 -114 -15 -127 -14 -245
4 -69 11 -145 24 -170 31 -111 27 -222 103 -235 160 -22 101 145 200 395 234
140 18 137 18 278 1z m-508 -558 c133 -44 186 -51 365 -51 182 0 233 8 386 55
115 36 148 35 167 -4 20 -41 0 -115 -41 -155 -36 -35 -155 -93 -237 -115 -77
-21 -189 -37 -265 -37 -188 0 -430 76 -510 159 -25 27 -30 41 -33 98 -7 102 4
105 168 50z m-668 -176 c247 -1 289 -3 302 -17 12 -11 16 -35 16 -85 0 -68
-11 -106 -34 -121 -6 -4 -216 -8 -467 -8 -354 0 -459 3 -466 13 -14 17 -24
120 -17 168 5 28 13 43 28 50 12 4 95 7 186 4 91 -2 294 -4 452 -4z m630 -232
c158 -52 198 -60 358 -66 178 -6 276 7 429 57 145 47 171 41 171 -43 0 -78
-30 -119 -125 -172 -77 -43 -128 -60 -243 -79 -261 -45 -556 14 -681 136 -36
35 -55 94 -45 143 5 28 23 52 41 55 1 0 44 -14 95 -31z"/>
<path d="M900 2590 c-18 -4 -40 -16 -47 -26 -22 -29 -16 -82 12 -109 23 -24
29 -25 159 -25 127 0 136 1 162 24 21 18 28 32 28 61 0 56 -29 75 -113 75 -36
0 -88 2 -116 5 -27 2 -66 0 -85 -5z"/>
</g>
</svg>
