 <svg  version="1.0" xmlns="http://www.w3.org/2000/svg"  width="123.000000pt" height="120.000000pt" viewBox="0 0 123.000000 120.000000"  preserveAspectRatio="xMidYMid meet">  <g transform="translate(0.000000,120.000000) scale(0.100000,-0.100000)" fill="#a52b29" stroke="none"> <path d="M505 1023 c-55 -30 -149 -82 -208 -115 l-108 -60 3 -77 3 -76 33 1 32 2 0 -214 0 -214 -35 0 c-33 0 -35 -2 -35 -35 l0 -35 420 0 420 0 0 35 c0 33 -2 35 -35 35 l-35 0 2 212 3 213 33 -3 32 -4 0 84 -1 83 -209 113 c-114 61 -210 112 -212 111 -2 0 -48 -25 -103 -56z m290 -116 c150 -82 170 -96 173 -120 l3 -27 -355 0 -356 0 0 28 c1 25 15 35 168 119 92 50 174 91 182 92 8 0 92 -42 185 -92z m-324 -422 l0 -210 -71 -3 -70 -3 0 213 0 213 71 0 71 0 -1 -210z m210 -1 l0 -209 -71 -3 -70 -3 0 213 0 213 71 -1 71 0 -1 -210z m215 -2 l2 -212 -74 0 -74 0 0 208 c0 115 2 211 4 213 2 2 35 4 72 3 l69 -1 1 -211z"/> <path d="M542 868 l3 -33 65 0 65 0 3 33 3 32 -71 0 -71 0 3 -32z"/> </g> </svg> 