<?xml version="1.0" standalone="no"?>
<!DOCTYPE svg PUBLIC "-//W3C//DTD SVG 20010904//EN"
 "http://www.w3.org/TR/2001/REC-SVG-20010904/DTD/svg10.dtd">
<svg version="1.0" xmlns="http://www.w3.org/2000/svg"
 width="366.000000pt" height="324.000000pt" viewBox="0 0 366.000000 324.000000"
 preserveAspectRatio="xMidYMid meet">
<metadata>
Created by potrace 1.10, written by Peter Selinger 2001-2011
</metadata>
<g transform="translate(0.000000,324.000000) scale(0.100000,-0.100000)"
fill="#000000" stroke="none">
<path d="M808 2920 l-23 -6 0 -1309 c0 -1257 1 -1310 18 -1313 16 -3 136 70
297 181 69 48 107 44 205 -24 135 -94 172 -112 207 -105 18 3 83 40 146 82
157 104 157 104 296 11 129 -87 158 -100 197 -92 15 4 79 41 141 82 144 97
160 99 268 27 248 -166 270 -178 284 -155 11 16 8 2603 -2 2613 -10 10 -1992
17 -2034 8z m1848 -184 c12 -17 14 -176 14 -1050 0 -574 -4 -1037 -9 -1045
-13 -20 -46 -8 -124 44 -37 25 -77 45 -88 45 -12 0 -80 -39 -153 -87 -178
-119 -157 -121 -377 33 -43 30 -88 54 -101 54 -12 0 -81 -39 -153 -87 -166
-112 -166 -112 -300 -17 -179 126 -171 124 -267 59 -75 -50 -116 -64 -128 -45
-10 16 -13 2060 -4 2085 4 9 16 21 28 25 12 5 387 8 834 7 793 -2 814 -2 828
-21z"/>
<path d="M1223 2398 c-23 -11 -23 -15 -23 -184 0 -161 1 -174 19 -184 25 -13
341 -3 358 12 10 8 13 53 13 169 0 193 3 189 -114 189 -46 0 -116 2 -157 5
-46 3 -82 1 -96 -7z"/>
<path d="M1212 1648 c-7 -7 -12 -37 -12 -68 0 -31 5 -61 12 -68 9 -9 158 -12
608 -12 l597 0 11 25 c17 36 15 86 -4 113 l-15 22 -593 0 c-447 0 -595 -3
-604 -12z"/>
<path d="M1222 1224 c-18 -12 -22 -25 -22 -68 0 -28 5 -57 12 -64 9 -9 155
-12 594 -12 660 0 621 -5 611 77 -2 24 -13 53 -22 63 -18 19 -35 20 -584 20
-497 0 -569 -2 -589 -16z"/>
</g>
</svg>
