<?xml version="1.0" standalone="no"?>
<!DOCTYPE svg PUBLIC "-//W3C//DTD SVG 20010904//EN"
 "http://www.w3.org/TR/2001/REC-SVG-20010904/DTD/svg10.dtd">
<svg version="1.0" xmlns="http://www.w3.org/2000/svg"
 width="122.000000pt" height="107.000000pt" viewBox="0 0 122.000000 107.000000"
 preserveAspectRatio="xMidYMid meet">
<metadata>
Created by potrace 1.10, written by Peter Selinger 2001-2011
</metadata>
<g transform="translate(0.000000,107.000000) scale(0.050000,-0.050000)"
fill="#000000" stroke="none">
<path d="M1018 1941 c-160 -87 -255 -265 -229 -429 77 -483 775 -470 825 15
33 318 -321 564 -596 414z m321 -127 c122 -61 177 -246 111 -373 -101 -197
-419 -188 -503 14 -103 245 154 480 392 359z"/>
<path d="M360 712 l0 -229 75 -58 c417 -327 779 -326 1395 5 244 130 271 184
149 301 -61 58 -66 59 -315 66 -237 6 -258 10 -306 55 -80 76 -159 88 -593 88
l-405 0 0 -228z m918 40 c84 -76 57 -92 -158 -92 l-200 0 0 -70 0 -70 280 0
280 0 0 70 0 70 200 0 c270 0 269 -30 -5 -158 -512 -240 -733 -248 -1054 -41
l-121 78 0 132 0 131 368 -6 c329 -5 372 -10 410 -44z"/>
</g>
</svg>
