<?xml version="1.0" standalone="no"?>
<!DOCTYPE svg PUBLIC "-//W3C//DTD SVG 20010904//EN"
 "http://www.w3.org/TR/2001/REC-SVG-20010904/DTD/svg10.dtd">
<svg version="1.0" xmlns="http://www.w3.org/2000/svg"
 width="204.000000pt" height="204.000000pt" viewBox="0 0 204.000000 204.000000"
 preserveAspectRatio="xMidYMid meet">
<metadata>
Created by potrace 1.10, written by Peter Selinger 2001-2011
</metadata>
<g transform="translate(0.000000,204.000000) scale(0.100000,-0.100000)"
fill="#000000" stroke="none">
<path d="M620 1492 c-87 -3 -113 -14 -140 -58 -28 -44 -28 -163 -2 -187 23
-21 75 -22 91 -3 6 8 11 39 10 70 -1 31 3 62 9 68 7 7 178 12 520 14 l511 4
15 -22 c22 -30 21 -102 -1 -124 -16 -15 -38 -16 -255 -10 -230 7 -238 6 -258
-14 -26 -26 -25 -51 3 -78 23 -21 29 -22 193 -17 93 3 197 7 230 10 101 7 97
16 100 -256 1 -188 -1 -238 -12 -256 l-14 -23 -509 0 c-437 0 -510 2 -521 15
-7 8 -13 38 -14 67 -1 47 -4 53 -28 62 -18 6 -36 5 -57 -4 -29 -12 -31 -16
-31 -66 0 -61 24 -130 51 -144 11 -6 242 -10 598 -10 568 0 581 0 601 20 19
19 20 33 20 449 0 236 -3 437 -6 446 -4 8 -21 23 -38 33 -28 15 -77 17 -511
17 -264 0 -514 -1 -555 -3z"/>
<path d="M832 1194 c-31 -21 -28 -55 8 -89 29 -28 38 -50 23 -58 -5 -2 -87 -1
-183 3 -178 8 -213 4 -223 -24 -10 -25 14 -66 41 -73 32 -8 279 5 318 16 31 9
64 -1 64 -19 0 -6 -16 -27 -35 -49 -19 -21 -35 -45 -35 -53 0 -22 21 -38 50
-38 33 0 200 164 200 197 0 25 -169 203 -192 203 -7 0 -24 -7 -36 -16z"/>
<path d="M1435 850 c-53 -21 -64 -80 -21 -117 47 -40 106 -27 125 27 23 67
-36 118 -104 90z"/>
</g>
</svg>
