<?xml version="1.0" standalone="no"?>
<!DOCTYPE svg PUBLIC "-//W3C//DTD SVG 20010904//EN"
 "http://www.w3.org/TR/2001/REC-SVG-20010904/DTD/svg10.dtd">
<svg version="1.0" xmlns="http://www.w3.org/2000/svg"
 width="900.000000pt" height="903.000000pt" viewBox="0 0 900.000000 903.000000"
 preserveAspectRatio="xMidYMid meet">
<metadata>
Created by potrace 1.10, written by Peter Selinger 2001-2011
</metadata>
<g transform="translate(0.000000,903.000000) scale(0.100000,-0.100000)"
fill="#000000" stroke="none">
<path d="M940 8584 c-69 -7 -142 -19 -162 -28 -21 -9 -46 -16 -58 -16 -33 0
-204 -95 -277 -153 -116 -94 -171 -161 -249 -308 -37 -70 -75 -207 -89 -324
-21 -171 -22 -4072 -1 -4265 29 -267 148 -489 346 -642 88 -68 224 -137 330
-169 72 -21 97 -22 565 -26 436 -4 491 -6 503 -21 9 -12 12 -237 12 -1043 0
-713 3 -1030 11 -1034 5 -4 27 5 47 19 37 26 471 370 682 541 63 51 140 112
171 136 70 54 211 167 293 234 33 28 71 57 82 65 12 8 88 69 169 135 82 66
162 131 179 144 17 14 73 59 125 100 51 42 123 99 160 128 36 29 89 70 116 92
28 22 78 62 111 88 34 26 115 91 180 144 255 204 327 259 348 264 11 3 719 6
1571 8 l1550 2 111 37 c117 40 240 107 326 179 75 64 172 191 222 294 102 207
95 46 96 2451 0 2204 0 2191 -45 2338 -46 150 -184 349 -304 438 -154 115
-309 174 -506 193 -175 17 -6439 16 -6615 -1z m6651 -701 c74 -37 111 -80 129
-153 8 -32 10 -648 8 -2135 -3 -1950 -4 -2092 -20 -2126 -20 -43 -97 -113
-136 -125 -15 -4 -760 -10 -1657 -13 l-1630 -6 -91 -70 c-73 -57 -798 -635
-1139 -909 -389 -313 -472 -376 -490 -373 -20 2 -20 10 -22 662 -3 659 -3 660
-24 678 -20 16 -71 17 -765 17 -491 0 -760 4 -793 11 -72 15 -123 56 -157 126
l-29 58 0 2096 0 2095 31 60 c38 72 91 113 171 130 46 10 755 12 3303 11
l3245 -2 66 -32z"/>
<path d="M1645 6543 c-11 -3 -23 -10 -27 -17 -11 -17 -9 -628 2 -646 8 -13
312 -15 2635 -15 2323 0 2627 2 2635 15 6 9 10 148 10 327 0 269 -2 314 -16
327 -14 14 -274 16 -2617 15 -1431 -1 -2611 -4 -2622 -6z"/>
<path d="M1631 5373 c-21 -18 -21 -22 -19 -343 l3 -325 1454 -3 c1075 -1 1457
1 1468 9 11 10 13 71 11 333 l-3 320 -25 13 c-20 10 -321 13 -1446 13 -1339 0
-1423 -1 -1443 -17z"/>
</g>
</svg>
