<?xml version="1.0" standalone="no"?>
<!DOCTYPE svg PUBLIC "-//W3C//DTD SVG 20010904//EN"
 "http://www.w3.org/TR/2001/REC-SVG-20010904/DTD/svg10.dtd">
<svg version="1.0" xmlns="http://www.w3.org/2000/svg"
 width="522.000000pt" height="522.000000pt" viewBox="0 0 522.000000 522.000000"
 preserveAspectRatio="xMidYMid meet">
<metadata>
Created by potrace 1.10, written by Peter Selinger 2001-2011
</metadata>
<g transform="translate(0.000000,522.000000) scale(0.100000,-0.100000)"
fill="#000000" stroke="none">
<path d="M1900 3832 c-27 -27 -50 -85 -50 -125 0 -66 -52 -87 -215 -87 -136 0
-173 -10 -197 -53 -10 -17 -12 -241 -10 -1067 1 -575 5 -1058 8 -1075 9 -47
52 -113 84 -130 17 -9 54 -20 83 -26 50 -10 1092 -13 1832 -6 344 3 352 4 401
59 67 73 72 137 75 933 1 369 2 717 2 775 1 58 0 200 -1 316 -2 204 -3 212
-25 231 -37 34 -84 43 -214 43 -165 0 -176 6 -198 102 -9 40 -24 81 -33 91
-46 51 -116 57 -145 13 -8 -12 -20 -53 -26 -91 -17 -109 -17 -109 -232 -113
-167 -3 -183 -2 -224 18 -38 18 -46 28 -55 63 -23 96 -35 121 -67 139 -29 17
-35 18 -66 4 -47 -19 -66 -50 -75 -121 -6 -53 -10 -61 -42 -79 -30 -18 -56
-21 -179 -24 -237 -6 -272 7 -286 109 -4 30 -11 63 -15 75 -23 60 -84 72 -130
26z m596 -393 c32 -16 74 -40 93 -54 48 -36 92 -33 138 8 65 57 103 69 243 75
190 7 229 0 293 -55 28 -25 63 -49 76 -54 35 -14 85 4 140 50 62 52 99 65 158
56 88 -13 119 -78 110 -233 -4 -65 -11 -102 -24 -125 -36 -62 -20 -61 -848
-61 -977 -1 -1167 3 -1220 29 -33 17 -43 29 -57 70 -10 29 -17 81 -17 125 -1
133 44 190 148 190 37 0 56 -6 78 -24 54 -45 127 -86 155 -86 19 0 44 15 82
49 44 40 64 51 103 56 26 4 51 7 56 8 4 1 58 3 120 4 108 2 117 1 173 -28z
m-506 -539 c66 4 41 3 670 2 278 0 595 1 705 2 281 4 335 -10 369 -94 14 -36
16 -110 16 -623 0 -326 -4 -608 -10 -641 -10 -63 -27 -88 -75 -114 -27 -14
-129 -16 -996 -15 -947 1 -967 1 -1012 21 -25 11 -51 31 -59 44 -10 18 -14
150 -16 653 -3 565 -1 634 14 673 9 23 27 50 41 60 44 28 131 42 218 35 44 -4
105 -5 135 -3z"/>
</g>
</svg>
