<?xml version="1.0" standalone="no"?>
<!DOCTYPE svg PUBLIC "-//W3C//DTD SVG 20010904//EN"
 "http://www.w3.org/TR/2001/REC-SVG-20010904/DTD/svg10.dtd">
<svg version="1.0" xmlns="http://www.w3.org/2000/svg"
 width="300.000000pt" height="242.000000pt" viewBox="0 0 300.000000 242.000000"
 preserveAspectRatio="xMidYMid meet">
<metadata>
Created by potrace 1.10, written by Peter Selinger 2001-2011
</metadata>
<g transform="translate(0.000000,242.000000) scale(0.050000,-0.050000)"
fill="#000000" stroke="none">
<path d="M2953 4475 c-30 -22 -34 -55 -29 -235 l6 -209 75 -17 c43 -11 107
-11 150 0 l75 17 6 209 c6 243 -4 260 -156 260 -51 0 -108 -11 -127 -25z"/>
<path d="M1644 3894 c-108 -110 -111 -98 75 -283 177 -176 162 -174 296 -34
87 91 86 93 -80 259 -171 169 -180 171 -291 58z"/>
<path d="M4224 3835 c-171 -174 -170 -161 -44 -285 l100 -99 160 159 c189 188
182 160 66 276 -119 119 -110 121 -282 -51z"/>
<path d="M2880 3621 c-910 -172 -1281 -1285 -649 -1947 737 -774 2009 -268
2009 799 0 717 -665 1279 -1360 1148z m480 -341 c817 -299 745 -1454 -103
-1652 -212 -50 -197 -116 -197 839 0 455 6 832 13 840 27 26 180 12 287 -27z"/>
<path d="M1074 2607 c-8 -7 -14 -71 -14 -141 0 -155 23 -169 257 -163 235 7
226 -1 219 165 l-6 142 -221 6 c-122 3 -227 -1 -235 -9z"/>
<path d="M4634 2607 c-19 -19 -18 -287 1 -288 211 -17 345 -20 399 -10 l68 13
-6 144 -6 144 -221 6 c-122 3 -227 -1 -235 -9z"/>
<path d="M1721 1330 c-190 -185 -188 -175 -61 -300 l100 -99 160 159 c189 188
186 176 61 299 l-99 97 -161 -156z"/>
<path d="M4164 1374 c-107 -109 -109 -100 61 -270 171 -169 184 -172 292 -54
105 113 109 96 -62 266 -171 169 -180 171 -291 58z"/>
<path d="M2929 894 c-6 -15 -8 -116 -5 -225 l6 -199 150 0 150 0 0 220 0 220
-145 6 c-109 4 -148 -1 -156 -22z"/>
</g>
</svg>
