<?xml version="1.0" standalone="no"?>
<!DOCTYPE svg PUBLIC "-//W3C//DTD SVG 20010904//EN"
 "http://www.w3.org/TR/2001/REC-SVG-20010904/DTD/svg10.dtd">
<svg version="1.0" xmlns="http://www.w3.org/2000/svg"
 width="300.000000pt" height="303.000000pt" viewBox="0 0 300.000000 303.000000"
 preserveAspectRatio="xMidYMid meet">
<metadata>
Created by potrace 1.10, written by Peter Selinger 2001-2011
</metadata>
<g transform="translate(0.000000,303.000000) scale(0.100000,-0.100000)"
fill="#000000" stroke="none">
<path d="M383 2870 l-23 -9 0 -480 0 -480 -32 -22 c-95 -64 -155 -141 -188
-238 -19 -58 -20 -84 -20 -561 0 -477 1 -503 20 -561 33 -98 88 -167 190 -240
41 -30 143 -79 162 -79 8 0 19 -5 26 -12 6 -6 30 -14 54 -18 24 -5 57 -13 73
-18 36 -13 262 -42 325 -42 69 0 290 30 340 46 25 8 52 14 61 14 9 0 38 9 65
21 187 80 266 139 336 250 40 62 42 92 48 544 l5 440 519 3 c363 1 523 6 533
13 10 9 13 59 13 229 0 120 -3 225 -6 234 -5 13 -26 16 -125 16 -139 0 -128
12 -132 -140 l-2 -95 -409 -3 c-409 -2 -409 -2 -433 20 -13 12 -23 26 -23 31
0 32 -125 139 -215 185 -127 65 -203 88 -365 109 -186 24 -268 27 -345 12 -38
-8 -99 -14 -135 -14 l-65 0 -3 298 -2 297 809 0 c502 0 819 4 835 10 26 9 26
11 26 120 0 109 0 111 -26 120 -33 13 -1860 12 -1891 0z m854 -1115 c20 -8 46
-15 59 -15 21 0 82 -25 124 -51 8 -5 24 -13 36 -18 11 -5 37 -25 57 -44 49
-46 50 -83 3 -134 -19 -21 -56 -48 -83 -61 -26 -13 -61 -30 -76 -38 -16 -8
-34 -14 -42 -14 -7 0 -39 -8 -71 -19 -34 -10 -106 -21 -169 -24 -127 -7 -349
6 -367 20 -7 6 -31 13 -53 17 -36 6 -85 25 -125 47 -8 5 -24 13 -35 18 -11 5
-38 25 -60 44 -34 30 -40 40 -40 77 0 36 6 47 35 72 50 41 186 108 221 108 17
0 40 6 52 12 52 30 465 32 534 3z m-803 -580 c11 -8 27 -15 35 -15 9 0 29 -7
45 -15 15 -8 33 -15 40 -15 6 0 40 -8 76 -19 72 -22 253 -45 345 -44 85 0 298
29 375 51 66 19 103 33 153 58 16 8 33 12 38 8 5 -3 9 -34 9 -68 0 -48 -5 -69
-20 -89 -23 -29 -130 -97 -153 -97 -8 0 -20 -7 -27 -15 -7 -8 -27 -15 -44 -15
-17 0 -44 -7 -61 -16 -38 -21 -365 -32 -465 -16 -148 24 -267 71 -346 137 -34
29 -38 37 -42 93 -6 89 3 106 42 77z m13 -479 c66 -32 100 -45 138 -51 22 -4
45 -10 50 -15 10 -8 153 -26 288 -37 88 -7 312 18 427 47 44 12 65 20 143 54
21 9 42 16 47 16 6 0 10 -32 10 -72 0 -70 -1 -72 -39 -107 -22 -21 -62 -47
-88 -60 -26 -12 -60 -29 -75 -37 -14 -8 -37 -14 -51 -14 -13 0 -42 -8 -63 -17
-57 -24 -471 -24 -526 0 -21 10 -50 17 -66 17 -16 0 -35 7 -42 15 -7 8 -19 15
-27 15 -19 0 -89 37 -128 69 -43 34 -54 59 -55 122 0 74 6 80 57 55z"/>
<path d="M2642 2868 c-15 -15 -17 -543 -2 -582 9 -26 11 -26 120 -26 109 0
111 0 120 26 15 39 13 567 -2 582 -8 8 -49 12 -118 12 -69 0 -110 -4 -118 -12z"/>
</g>
</svg>
