<?xml version="1.0" standalone="no"?>
<!DOCTYPE svg PUBLIC "-//W3C//DTD SVG 20010904//EN"
 "http://www.w3.org/TR/2001/REC-SVG-20010904/DTD/svg10.dtd">
<svg version="1.0" xmlns="http://www.w3.org/2000/svg"
 width="363.000000pt" height="342.000000pt" viewBox="0 0 363.000000 342.000000"
 preserveAspectRatio="xMidYMid meet">
<metadata>
Created by potrace 1.10, written by Peter Selinger 2001-2011
</metadata>
<g transform="translate(0.000000,342.000000) scale(0.100000,-0.100000)"
fill="#000000" stroke="none">
<path d="M1775 2849 c-33 -21 -67 -42 -75 -46 -8 -3 -28 -16 -45 -27 -16 -12
-74 -49 -130 -83 -55 -34 -142 -88 -193 -120 -51 -32 -100 -63 -110 -68 -9 -6
-62 -40 -117 -76 -167 -108 -221 -139 -249 -139 l-26 0 0 183 c0 100 -5 189
-10 197 -7 11 -28 15 -79 15 -38 0 -73 -4 -77 -8 -11 -11 -17 -689 -6 -705 17
-25 48 -7 542 313 36 23 93 59 128 81 89 55 198 124 365 232 88 56 154 92 170
92 15 0 86 -36 167 -85 78 -47 143 -85 146 -85 3 0 94 -52 202 -116 317 -187
415 -244 552 -322 25 -14 53 -30 63 -36 12 -8 22 -8 34 0 24 15 76 112 69 129
-6 16 -15 22 -196 126 -58 34 -134 78 -170 99 -36 21 -108 62 -160 92 -52 30
-153 89 -225 130 -341 198 -469 268 -489 267 -11 0 -48 -18 -81 -40z"/>
<path d="M1675 1964 c-11 -2 -45 -9 -75 -15 -213 -43 -384 -157 -423 -281 -16
-50 -18 -100 -15 -509 l3 -454 27 -45 c15 -25 44 -61 65 -81 42 -40 153 -109
175 -109 8 0 18 -4 24 -9 5 -6 27 -14 49 -20 22 -6 58 -15 80 -20 88 -22 214
-33 320 -27 213 11 298 31 440 106 72 37 99 58 137 104 78 97 78 96 78 584 0
453 0 450 -47 537 -47 87 -197 177 -369 221 -57 15 -421 29 -469 18z m435
-189 c107 -33 179 -67 219 -104 37 -34 41 -43 41 -84 0 -58 -32 -92 -133 -142
-203 -101 -560 -99 -765 2 -82 41 -132 94 -132 140 0 56 64 113 185 163 33 13
137 40 175 44 88 10 356 -2 410 -19z m-703 -486 c15 -7 42 -18 60 -25 17 -8
39 -14 48 -14 10 0 38 -6 64 -14 156 -49 392 -49 566 -1 28 8 61 17 75 20 14
4 39 13 55 20 17 7 42 16 57 20 37 9 51 -21 46 -98 -4 -57 -7 -63 -49 -99 -97
-85 -211 -118 -429 -125 -132 -4 -171 -2 -258 16 -120 24 -200 59 -259 114
l-43 40 0 72 c0 91 7 98 67 74z m947 -395 c25 -9 39 -77 26 -124 -16 -58 -53
-96 -136 -136 -152 -73 -391 -95 -601 -55 -119 23 -200 60 -261 117 l-43 41 3
74 3 74 35 -1 c19 -1 69 -13 110 -27 136 -46 207 -57 377 -57 113 0 174 4 209
15 27 8 60 15 74 15 14 0 38 7 54 15 15 8 33 15 40 15 6 1 29 9 51 20 48 23
40 21 59 14z"/>
</g>
</svg>
