<?xml version="1.0" standalone="no"?>
<!DOCTYPE svg PUBLIC "-//W3C//DTD SVG 20010904//EN"
 "http://www.w3.org/TR/2001/REC-SVG-20010904/DTD/svg10.dtd">
<svg version="1.0" xmlns="http://www.w3.org/2000/svg"
 width="197.000000pt" height="197.000000pt" viewBox="0 0 197.000000 197.000000"
 preserveAspectRatio="xMidYMid meet">
<metadata>
Created by potrace 1.10, written by Peter Selinger 2001-2011
</metadata>
<g transform="translate(0.000000,197.000000) scale(0.100000,-0.100000)"
fill="#000000" stroke="none">
<path d="M544 1679 c-40 -11 -82 -54 -92 -93 l-8 -31 -100 -5 -99 -5 0 -60 0
-60 98 -3 c82 -2 99 -5 103 -20 27 -89 80 -122 196 -122 121 0 174 27 198 100
l13 40 439 0 438 0 0 65 0 65 -438 0 -438 0 -13 38 c-18 50 -29 62 -76 83 -44
20 -165 25 -221 8z m171 -194 l0 -70 -67 -3 -68 -3 0 69 c0 38 3 72 7 76 4 4
34 6 68 4 l60 -3 0 -70z"/>
<path d="M1177 1177 c-15 -12 -34 -40 -41 -62 l-14 -40 -439 -5 -438 -5 -3
-49 c-2 -27 1 -53 6 -58 5 -5 203 -10 441 -11 l433 -2 13 -40 c8 -22 29 -52
47 -67 31 -27 36 -28 146 -28 145 0 170 15 206 123 5 15 19 17 101 17 l95 0 0
60 0 60 -95 0 -94 0 -19 43 c-36 82 -48 87 -191 87 -116 0 -128 -2 -154 -23z
m221 -169 l-3 -73 -65 0 -65 0 -3 73 -3 72 71 0 71 0 -3 -72z"/>
<path d="M530 719 c-39 -16 -69 -49 -76 -85 -7 -41 -20 -45 -114 -44 -41 1
-81 1 -88 1 -9 -1 -12 -18 -10 -63 l3 -63 101 -3 102 -3 6 -33 c6 -33 33 -64
73 -85 12 -6 66 -11 121 -11 86 0 104 3 133 23 19 12 43 41 54 64 l20 42 435
3 435 3 3 63 c2 46 0 62 -10 62 -7 0 -203 0 -434 0 l-422 0 -23 47 c-38 76
-73 93 -188 92 -53 0 -107 -5 -121 -10z m190 -189 l0 -70 -70 0 -70 0 0 70 0
70 70 0 70 0 0 -70z"/>
</g>
</svg>
