<?xml version="1.0" standalone="no"?>
<!DOCTYPE svg PUBLIC "-//W3C//DTD SVG 20010904//EN"
 "http://www.w3.org/TR/2001/REC-SVG-20010904/DTD/svg10.dtd">
<svg version="1.0" xmlns="http://www.w3.org/2000/svg"
 width="198.000000pt" height="204.000000pt" viewBox="0 0 198.000000 204.000000"
 preserveAspectRatio="xMidYMid meet">
<metadata>
Created by potrace 1.10, written by Peter Selinger 2001-2011
</metadata>
<g transform="translate(0.000000,204.000000) scale(0.100000,-0.100000)"
fill="#000000" stroke="none">
<path d="M479 1579 c-19 -3 -44 -11 -57 -18 -48 -26 -50 -37 -52 -348 0 -160
2 -308 6 -328 8 -46 44 -65 123 -65 80 0 88 -13 70 -121 -10 -63 -10 -81 1
-93 22 -27 51 -18 99 31 26 27 66 59 90 73 24 14 58 37 75 52 53 44 76 48 277
48 204 0 242 7 273 51 14 21 16 64 16 341 l0 317 -37 28 -36 28 -201 2 c-111
2 -294 4 -407 5 -114 2 -222 0 -240 -3z m807 -111 c11 -18 10 -539 -1 -548 -6
-5 -93 -9 -195 -9 -102 0 -200 -4 -217 -10 -18 -5 -54 -27 -80 -49 -87 -72
-113 -76 -113 -17 0 19 -4 45 -10 60 -10 25 -10 25 -88 19 -65 -5 -80 -4 -91
10 -19 22 -19 519 -1 541 10 12 71 15 374 17 379 3 412 2 422 -14z"/>
<path d="M1536 1287 c-17 -13 -19 -33 -17 -289 2 -326 8 -308 -104 -308 -97 0
-105 -4 -105 -50 0 -61 -32 -63 -105 -5 -63 50 -76 54 -189 57 -118 2 -139 -7
-138 -57 0 -44 15 -50 119 -47 95 2 96 2 152 -34 31 -21 76 -53 100 -72 34
-28 55 -36 95 -39 70 -5 81 4 61 51 -9 21 -15 50 -13 65 3 25 6 26 73 31 79 6
89 10 133 61 l32 37 0 294 0 294 -33 12 c-41 15 -39 15 -61 -1z"/>
</g>
</svg>
