<?xml version="1.0" standalone="no"?>
<!DOCTYPE svg PUBLIC "-//W3C//DTD SVG 20010904//EN"
 "http://www.w3.org/TR/2001/REC-SVG-20010904/DTD/svg10.dtd">
<svg version="1.0" xmlns="http://www.w3.org/2000/svg"
 width="366.000000pt" height="312.000000pt" viewBox="0 0 366.000000 312.000000"
 preserveAspectRatio="xMidYMid meet">
<metadata>
Created by potrace 1.10, written by Peter Selinger 2001-2011
</metadata>
<g transform="translate(0.000000,312.000000) scale(0.100000,-0.100000)"
fill="#000000" stroke="none">
<path d="M640 2661 c-5 -11 -10 -45 -10 -75 0 -44 4 -57 19 -66 11 -5 74 -10
141 -10 67 0 130 -5 141 -10 18 -10 19 -28 19 -643 0 -710 7 -650 -74 -677
-53 -17 -131 -83 -172 -144 -23 -34 -43 -84 -56 -135 -19 -77 -19 -85 -4 -154
20 -88 48 -145 100 -204 79 -90 158 -123 296 -123 141 0 215 32 302 129 47 52
88 120 88 146 0 8 1 16 3 17 1 2 382 5 847 8 l845 5 0 90 0 90 -845 5 c-465 3
-846 6 -847 8 -2 1 -3 9 -3 17 0 55 -126 204 -199 236 -25 11 -57 26 -71 34
l-25 14 -5 728 c-3 400 -6 729 -8 731 -1 1 -108 2 -237 2 -221 0 -235 -1 -245
-19z m472 -1638 c62 -22 122 -85 138 -145 29 -106 -10 -205 -102 -258 -98 -56
-211 -34 -284 56 -37 44 -39 52 -43 125 -2 65 0 84 17 111 31 49 78 90 125
109 56 22 89 23 149 2z"/>
<path d="M1500 2473 c-8 -3 -18 -11 -22 -17 -4 -6 -8 -275 -8 -598 0 -570 1
-588 19 -598 13 -7 256 -10 720 -10 687 0 700 0 711 20 7 13 10 207 8 605 -3
508 -5 587 -18 595 -16 10 -1384 13 -1410 3z m1235 -203 c13 -24 15 -88 15
-405 0 -410 -2 -428 -56 -441 -14 -4 -246 -5 -515 -2 -372 3 -492 7 -502 17
-9 9 -12 109 -12 427 0 358 2 416 15 424 9 6 222 10 527 10 l512 0 16 -30z"/>
</g>
</svg>
