<?xml version="1.0" standalone="no"?>
<!DOCTYPE svg PUBLIC "-//W3C//DTD SVG 20010904//EN"
 "http://www.w3.org/TR/2001/REC-SVG-20010904/DTD/svg10.dtd">
<svg version="1.0" xmlns="http://www.w3.org/2000/svg"
 width="405.000000pt" height="408.000000pt" viewBox="0 0 405.000000 408.000000"
 preserveAspectRatio="xMidYMid meet">
<metadata>
Created by potrace 1.10, written by Peter Selinger 2001-2011
</metadata>
<g transform="translate(0.000000,408.000000) scale(0.100000,-0.100000)"
fill="#000000" stroke="none">
<path d="M2625 2800 c-94 -93 -178 -170 -186 -170 -8 0 -39 9 -69 21 -178 67
-272 83 -490 83 -247 0 -310 -11 -525 -97 -265 -106 -535 -355 -675 -625 -42
-81 -38 -110 29 -226 82 -143 233 -314 359 -408 35 -26 52 -46 52 -60 0 -15
-48 -70 -145 -168 -80 -81 -145 -153 -145 -162 0 -22 85 -108 106 -108 10 0
93 74 186 166 l167 167 47 -7 c26 -3 61 -13 78 -22 30 -16 51 -22 146 -43 113
-25 186 -32 332 -32 86 -1 162 2 168 6 6 4 41 11 78 16 37 5 83 15 102 21 238
75 416 183 592 359 146 146 289 374 274 435 -6 24 -62 121 -130 227 -39 61
-214 243 -281 292 -48 36 -64 55 -65 75 0 8 65 80 145 160 96 96 145 152 145
166 0 25 -81 104 -106 104 -10 0 -95 -76 -189 -170z m-580 -255 c171 -23 235
-45 235 -79 0 -6 -21 -32 -47 -58 -55 -56 -75 -59 -154 -24 -239 105 -510 13
-644 -218 -38 -66 -55 -141 -55 -240 0 -96 14 -164 50 -234 11 -24 19 -51 16
-60 -9 -27 -136 -152 -161 -158 -13 -3 -39 2 -58 11 -76 36 -243 203 -328 330
-71 105 -72 122 -13 206 56 80 69 96 147 179 103 108 181 167 313 236 126 66
202 90 349 109 133 17 229 17 350 0z m514 -206 c133 -89 351 -343 351 -409 0
-84 -219 -342 -380 -446 -98 -63 -195 -111 -275 -135 -38 -11 -81 -24 -95 -29
-14 -5 -86 -14 -161 -21 -156 -13 -328 -1 -440 32 -105 30 -109 50 -29 122 48
44 69 45 140 11 70 -34 156 -47 255 -40 68 5 93 13 164 48 159 81 249 203 278
380 14 81 14 97 0 169 -9 43 -27 102 -41 130 -17 36 -22 58 -16 73 12 32 145
156 168 156 11 0 47 -19 81 -41z m-574 -115 c14 -9 25 -22 25 -28 0 -17 -363
-378 -388 -387 -14 -6 -28 -2 -44 10 -31 26 -38 136 -12 213 30 92 139 186
244 209 50 11 146 2 175 -17z m206 -222 c6 -15 9 -59 6 -99 -7 -124 -71 -219
-186 -274 -35 -18 -64 -23 -121 -24 -91 0 -126 9 -140 36 -10 18 6 38 162 196
95 96 186 184 202 194 35 21 62 12 77 -29z"/>
</g>
</svg>
