<?xml version="1.0" standalone="no"?>
<!DOCTYPE svg PUBLIC "-//W3C//DTD SVG 20010904//EN"
 "http://www.w3.org/TR/2001/REC-SVG-20010904/DTD/svg10.dtd">
<svg version="1.0" xmlns="http://www.w3.org/2000/svg"
 width="300.000000pt" height="302.000000pt" viewBox="0 0 300.000000 302.000000"
 preserveAspectRatio="xMidYMid meet">
<metadata>
Created by potrace 1.10, written by Peter Selinger 2001-2011
</metadata>
<g transform="translate(0.000000,302.000000) scale(0.100000,-0.100000)"
fill="#000000" stroke="none">
<path d="M1250 2853 c-41 -8 -88 -20 -103 -28 -16 -8 -36 -15 -46 -15 -26 0
-120 -36 -171 -64 -25 -14 -55 -30 -67 -35 -11 -5 -24 -15 -28 -20 -3 -6 -13
-11 -21 -11 -17 0 -69 -34 -100 -66 -11 -11 -27 -25 -36 -30 -23 -13 -119 -96
-142 -122 -12 -13 -36 -40 -53 -60 -18 -21 -33 -40 -33 -44 0 -3 -15 -22 -32
-41 -37 -38 -51 -58 -73 -102 -8 -16 -30 -57 -50 -90 -19 -33 -37 -64 -38 -70
-2 -5 -10 -26 -16 -45 -7 -19 -16 -51 -20 -70 -4 -19 -13 -44 -19 -56 -6 -11
-14 -45 -18 -75 -4 -30 -10 -61 -14 -69 -14 -27 -21 -282 -11 -370 14 -122 30
-201 47 -232 7 -14 14 -38 14 -52 0 -23 18 -75 41 -116 4 -8 29 -56 54 -107
25 -50 63 -111 83 -135 21 -24 55 -65 77 -93 63 -80 75 -93 165 -163 46 -37
97 -79 114 -94 16 -15 42 -30 58 -33 15 -4 31 -11 34 -16 3 -6 16 -15 27 -20
12 -5 41 -20 65 -33 23 -14 56 -27 72 -31 16 -4 32 -11 35 -16 4 -5 18 -9 33
-9 15 0 40 -7 56 -15 29 -15 83 -26 216 -45 80 -11 256 -11 330 0 121 18 186
31 217 45 17 8 37 15 45 15 17 1 108 32 128 45 24 15 101 56 152 81 26 13 55
32 65 42 10 9 41 35 68 57 61 49 104 85 124 106 70 72 201 243 201 262 0 9 5
19 11 22 5 4 15 17 20 28 5 12 21 42 35 67 28 51 64 145 64 171 0 10 6 30 14
46 61 121 59 565 -2 748 -6 17 -15 46 -22 65 -6 19 -16 50 -20 69 -5 19 -12
37 -17 40 -8 6 -14 17 -79 141 -19 36 -47 79 -62 95 -15 17 -47 55 -72 85 -25
30 -52 63 -60 73 -8 10 -46 44 -85 75 -38 31 -86 71 -106 88 -20 17 -58 43
-85 56 -77 39 -146 77 -158 87 -6 4 -22 11 -36 14 -14 3 -40 10 -57 16 -83 28
-104 34 -188 52 -110 23 -405 25 -525 2z m510 -328 c14 -7 44 -16 67 -20 24
-4 45 -11 49 -16 3 -5 13 -9 22 -9 10 0 37 -11 62 -25 25 -14 56 -31 70 -37
105 -50 338 -283 388 -388 6 -14 23 -45 37 -70 14 -25 25 -52 25 -62 0 -9 4
-19 9 -22 5 -4 12 -25 16 -49 4 -23 14 -55 23 -72 24 -46 23 -436 -1 -484 -9
-19 -17 -42 -17 -52 0 -27 -41 -128 -72 -180 -15 -25 -28 -51 -28 -56 0 -10
-50 -79 -100 -138 -51 -61 -136 -139 -220 -202 -14 -11 -65 -39 -115 -62 -49
-23 -98 -47 -107 -52 -10 -5 -27 -9 -39 -9 -11 0 -35 -7 -52 -15 -78 -35 -444
-35 -524 1 -17 8 -40 14 -52 14 -26 0 -69 18 -182 76 -165 85 -348 275 -433
449 -22 44 -46 92 -53 107 -7 14 -13 39 -13 55 0 16 -8 40 -17 53 -15 21 -17
53 -17 250 0 192 2 230 17 257 9 18 17 42 17 53 0 37 100 245 136 285 11 12
42 50 69 84 79 100 228 212 370 278 17 8 37 18 45 22 9 5 36 12 60 16 25 4 51
12 59 18 34 28 448 29 501 2z"/>
<path d="M1361 2256 c-8 -9 -11 -59 -9 -152 l3 -139 160 0 160 0 3 140 c2 123
0 141 -15 152 -25 19 -286 18 -302 -1z"/>
<path d="M1390 1752 l-35 -7 0 -535 0 -535 160 0 160 0 3 526 c2 471 1 528
-14 540 -17 14 -214 22 -274 11z"/>
</g>
</svg>
