<?xml version="1.0" standalone="no"?>
<!DOCTYPE svg PUBLIC "-//W3C//DTD SVG 20010904//EN"
 "http://www.w3.org/TR/2001/REC-SVG-20010904/DTD/svg10.dtd">
<svg version="1.0" xmlns="http://www.w3.org/2000/svg"
 width="300.000000pt" height="253.000000pt" viewBox="0 0 300.000000 253.000000"
 preserveAspectRatio="xMidYMid meet">
<metadata>
Created by potrace 1.10, written by Peter Selinger 2001-2011
</metadata>
<g transform="translate(0.000000,253.000000) scale(0.100000,-0.100000)"
fill="#000000" stroke="none">
<path d="M615 2309 c-40 -12 -58 -28 -84 -69 l-21 -35 0 -941 c0 -1043 -4
-987 66 -1040 l36 -28 551 2 551 3 34 26 c66 50 72 78 72 348 0 132 -4 246 -9
253 -5 9 -28 12 -77 10 l-69 -3 -5 -80 -5 -80 -484 -3 c-349 -1 -488 1 -497 9
-12 10 -14 136 -14 738 0 399 4 732 8 739 7 10 113 12 498 10 l489 -3 5 -75 5
-75 75 0 75 0 3 74 c4 97 -17 162 -66 199 l-35 27 -536 2 c-315 1 -548 -2
-566 -8z m1040 -1880 l0 -84 -485 -3 c-447 -2 -486 -1 -497 15 -14 18 -17 131
-5 150 6 10 116 13 473 15 255 2 475 0 489 -3 24 -5 25 -8 25 -90z"/>
<path d="M1455 1820 c-158 -5 -174 -7 -228 -32 -113 -53 -192 -164 -217 -304
-34 -188 83 -387 263 -448 36 -12 87 -16 213 -16 l165 0 -3 73 -3 72 -110 1
c-218 3 -264 16 -323 92 -39 50 -52 93 -52 169 0 79 27 140 84 190 56 49 114
62 274 63 l132 0 0 69 c0 47 -4 70 -12 72 -7 2 -89 2 -183 -1z"/>
<path d="M1830 1750 l0 -70 122 0 c158 0 228 -14 278 -57 133 -114 115 -347
-33 -425 -37 -20 -62 -23 -202 -28 l-160 -5 -3 -72 -3 -73 159 0 c116 0 173 4
212 16 180 53 299 252 269 446 -21 135 -107 253 -225 308 -62 30 -65 30 -239
30 l-175 0 0 -70z"/>
<path d="M1437 1492 c-14 -3 -17 -16 -17 -73 l0 -69 318 2 317 3 3 68 3 67
-38 0 c-21 0 -158 1 -304 2 -146 2 -273 2 -282 0z"/>
</g>
</svg>
