<?xml version="1.0" encoding="utf-8"?><!-- Uploaded to: SVG Repo, www.svgrepo.com, Generator: SVG Repo Mixer Tools -->
<svg fill="#000000" width="800px" height="800px" viewBox="0 0 24 24" id="mobile-payment-2" data-name="Line Color" xmlns="http://www.w3.org/2000/svg" class="icon line-color"><path id="secondary" d="M4,7H9V17H4a1,1,0,0,1-1-1V8A1,1,0,0,1,4,7ZM3,11H9" style="fill: none; stroke: rgb(44, 169, 188); stroke-linecap: round; stroke-linejoin: round; stroke-width: 2;"></path><path id="primary" d="M21,20V4a1,1,0,0,0-1-1H10A1,1,0,0,0,9,4V20a1,1,0,0,0,1,1H20A1,1,0,0,0,21,20ZM13.5,5h3L17,3H13Z" style="fill: none; stroke: rgb(0, 0, 0); stroke-linecap: round; stroke-linejoin: round; stroke-width: 2;"></path></svg>