<?xml version="1.0" standalone="no"?>
<!DOCTYPE svg PUBLIC "-//W3C//DTD SVG 20010904//EN"
 "http://www.w3.org/TR/2001/REC-SVG-20010904/DTD/svg10.dtd">
<svg version="1.0" xmlns="http://www.w3.org/2000/svg"
 width="333.000000pt" height="363.000000pt" viewBox="0 0 333.000000 363.000000"
 preserveAspectRatio="xMidYMid meet">
<metadata>
Created by potrace 1.10, written by Peter Selinger 2001-2011
</metadata>
<g transform="translate(0.000000,363.000000) scale(0.100000,-0.100000)"
fill="#000000" stroke="none">
<path d="M1010 3200 c-74 -7 -123 -39 -156 -100 -16 -32 -18 -70 -20 -412 l-3
-378 22 -15 c13 -9 44 -15 78 -15 93 0 89 -17 89 371 0 287 2 338 16 357 l15
22 609 0 c540 0 610 -2 624 -16 14 -14 16 -114 16 -948 0 -711 -3 -935 -12
-944 -9 -9 -161 -12 -624 -12 -556 0 -613 1 -625 17 -10 11 -15 55 -17 150 -3
122 -5 134 -24 144 -22 12 -142 8 -155 -5 -4 -4 -8 -177 -8 -384 l0 -377 25
-45 c14 -24 44 -57 66 -72 l42 -28 686 0 c619 0 690 1 722 16 46 22 90 77 103
130 15 60 15 2353 0 2408 -14 50 -81 123 -122 132 -36 8 -1262 12 -1347 4z
m1268 -2286 c20 -14 22 -23 22 -108 0 -58 -4 -96 -12 -104 -9 -9 -163 -12
-630 -12 l-618 0 -11 28 c-6 15 -9 62 -7 105 3 64 7 81 23 93 16 12 118 14
615 14 523 0 598 -2 618 -16z"/>
<path d="M1534 2780 c-71 -22 -93 -101 -40 -146 29 -25 46 -27 229 -26 83 0
99 7 123 54 19 36 4 92 -29 110 -27 15 -241 21 -283 8z"/>
<path d="M1282 2237 c-29 -29 -52 -59 -52 -67 0 -9 36 -50 80 -93 57 -56 80
-85 80 -103 l0 -24 -416 0 c-267 0 -422 -4 -435 -10 -16 -9 -19 -22 -19 -78 0
-37 4 -73 9 -80 6 -10 92 -13 416 -13 251 0 415 -4 426 -10 33 -17 21 -40 -61
-125 -44 -45 -80 -86 -80 -92 0 -19 96 -112 116 -112 23 0 438 412 433 429 -6
17 -422 431 -434 431 -6 0 -34 -24 -63 -53z"/>
</g>
</svg>
