<?xml version="1.0" standalone="no"?>
<!DOCTYPE svg PUBLIC "-//W3C//DTD SVG 20010904//EN"
 "http://www.w3.org/TR/2001/REC-SVG-20010904/DTD/svg10.dtd">
<svg version="1.0" xmlns="http://www.w3.org/2000/svg"
 width="66.000000pt" height="65.000000pt" viewBox="0 0 66.000000 65.000000"
 preserveAspectRatio="xMidYMid meet">
<metadata>
Created by potrace 1.10, written by Peter Selinger 2001-2011
</metadata>
<g transform="translate(0.000000,65.000000) scale(0.050000,-0.050000)"
fill="#000000" stroke="none">
<path d="M811 1002 c-6 -11 2 -32 18 -48 70 -70 48 -77 -224 -75 -255 3 -265
1 -265 -38 0 -49 -12 -47 295 -41 243 4 280 -6 215 -60 -37 -31 -39 -80 -4
-80 14 0 65 41 114 90 l88 90 -88 90 c-87 89 -127 108 -149 72z"/>
<path d="M435 544 c-41 -42 -75 -85 -75 -96 0 -34 155 -188 189 -188 44 0 38
40 -12 94 l-44 46 275 0 c251 0 274 3 268 35 -6 31 -35 35 -260 35 -275 0
-296 5 -236 60 22 20 40 48 40 63 0 50 -69 26 -145 -49z"/>
</g>
</svg>
