<?xml version="1.0" standalone="no"?>
<!DOCTYPE svg PUBLIC "-//W3C//DTD SVG 20010904//EN"
 "http://www.w3.org/TR/2001/REC-SVG-20010904/DTD/svg10.dtd">
<svg version="1.0" xmlns="http://www.w3.org/2000/svg"
 width="900.000000pt" height="927.000000pt" viewBox="0 0 900.000000 927.000000"
 preserveAspectRatio="xMidYMid meet">
<metadata>
Created by potrace 1.10, written by Peter Selinger 2001-2011
</metadata>
<g transform="translate(0.000000,927.000000) scale(0.100000,-0.100000)"
fill="#000000" stroke="none">
<path d="M4660 8240 c-1242 -7 -1297 -10 -1385 -60 -56 -32 -110 -98 -148
-180 -34 -74 -103 -281 -117 -355 -7 -33 -23 -103 -36 -155 -40 -163 -54 -167
-464 -157 -254 7 -677 -5 -813 -23 -86 -11 -231 -52 -287 -81 -78 -41 -119
-104 -139 -214 -7 -40 -13 -527 -17 -1445 -3 -762 -7 -1509 -9 -1660 -21
-2311 -20 -2451 26 -2633 22 -87 70 -172 116 -205 90 -64 251 -109 503 -142
281 -37 1650 -47 2250 -17 259 13 376 23 515 46 210 33 367 81 405 121 29 31
84 199 99 305 9 62 29 248 46 420 3 33 10 422 15 865 8 615 7 899 -2 1205 -26
800 -18 862 115 899 48 13 82 21 262 62 43 10 207 17 566 24 369 7 528 14 590
25 46 8 130 22 186 30 61 9 137 28 190 48 48 19 99 38 113 42 14 4 46 21 72
37 39 24 51 39 68 86 52 137 62 248 80 887 19 659 12 1214 -20 1560 -16 170
-91 407 -153 485 -51 65 -246 156 -365 171 -112 13 -969 17 -2262 9z m-564
-520 c263 -14 1070 -31 1884 -40 631 -6 725 -9 798 -25 120 -26 157 -71 184
-226 16 -91 14 -1333 -2 -1667 -12 -246 -20 -276 -82 -317 -66 -44 -157 -54
-473 -55 -154 0 -437 -7 -630 -15 -418 -17 -461 -25 -590 -110 -89 -59 -126
-92 -259 -238 -65 -70 -104 -104 -144 -124 l-54 -27 -139 12 c-76 7 -149 17
-162 23 -47 22 -97 172 -97 294 0 117 -24 135 -180 135 -155 1 -534 28 -575
42 -70 23 -78 53 -86 323 -10 303 -11 1296 -2 1660 7 330 6 326 98 350 61 17
265 19 511 5z m-1177 -829 c11 -6 25 -28 31 -49 6 -24 10 -263 10 -667 0 -346
5 -673 10 -725 11 -109 61 -331 92 -402 29 -67 72 -102 144 -116 32 -7 88 -18
124 -26 107 -23 271 -55 334 -67 75 -13 130 -41 153 -76 15 -23 18 -50 17
-183 0 -134 -5 -175 -32 -305 -31 -148 -39 -220 -24 -241 19 -29 49 -33 178
-23 149 11 175 17 277 63 62 29 82 44 118 92 85 111 121 145 167 154 44 8 73
-4 91 -39 10 -18 35 -291 45 -486 3 -60 7 -324 8 -585 2 -625 17 -589 -257
-616 -262 -26 -449 -33 -1320 -45 -923 -13 -1166 -11 -1202 9 -52 28 -52 29
-57 618 -11 1161 -18 3396 -11 3519 7 113 10 131 29 150 34 34 142 45 444 46
147 1 314 5 372 9 125 9 231 5 259 -9z m1748 -4878 c28 -37 35 -99 31 -253 -5
-192 -17 -227 -88 -248 -154 -44 -2198 -88 -2547 -54 -130 13 -203 42 -221 89
-17 42 -35 268 -28 340 14 137 30 144 250 115 216 -28 280 -32 416 -22 63 5
183 14 265 20 85 6 463 11 875 11 546 0 753 4 840 14 136 16 189 13 207 -12z"/>
</g>
</svg>
