<?xml version="1.0" standalone="no"?>
<!DOCTYPE svg PUBLIC "-//W3C//DTD SVG 20010904//EN"
 "http://www.w3.org/TR/2001/REC-SVG-20010904/DTD/svg10.dtd">
<svg version="1.0" xmlns="http://www.w3.org/2000/svg"
 width="330.000000pt" height="357.000000pt" viewBox="0 0 330.000000 357.000000"
 preserveAspectRatio="xMidYMid meet">
<metadata>
Created by potrace 1.10, written by Peter Selinger 2001-2011
</metadata>
<g transform="translate(0.000000,357.000000) scale(0.100000,-0.100000)"
fill="#000000" stroke="none">
<path d="M1496 2965 c-24 -25 -29 -78 -22 -231 3 -86 2 -153 -4 -168 -13 -35
-51 -34 -121 3 -68 37 -141 58 -249 70 -116 14 -329 16 -342 3 -16 -16 -10
-209 9 -272 44 -152 156 -296 275 -353 81 -39 209 -67 305 -67 45 0 88 -3 97
-6 9 -3 20 -22 25 -43 14 -51 7 -257 -9 -276 -18 -21 -52 -19 -131 10 -126 45
-221 60 -394 59 -126 0 -179 -5 -251 -21 -196 -46 -348 -125 -409 -215 -59
-84 -67 -131 -69 -375 -1 -281 5 -306 108 -409 42 -41 92 -80 121 -94 28 -12
62 -29 77 -36 14 -8 35 -14 46 -14 11 0 33 -7 48 -15 16 -8 45 -15 64 -15 19
0 53 -7 75 -15 57 -20 314 -20 381 0 27 8 60 15 74 15 30 0 99 22 199 63 98
41 128 39 188 -11 51 -43 173 -112 196 -112 8 0 28 -7 43 -15 16 -8 39 -15 50
-15 12 0 41 -7 65 -16 65 -24 471 -24 517 0 17 9 46 16 65 16 18 0 42 7 53 15
10 8 27 15 36 15 25 0 106 44 167 89 63 47 102 98 130 169 20 51 21 71 21 498
0 470 2 446 -44 544 -19 42 -119 133 -181 167 -59 31 -196 76 -265 88 -210 35
-505 12 -653 -50 -52 -22 -104 -20 -117 4 -13 25 -13 256 0 281 13 25 69 40
150 40 227 0 403 103 505 293 36 70 65 201 65 301 0 110 -8 116 -135 115 -112
-1 -306 -23 -333 -38 -11 -6 -28 -11 -37 -11 -9 0 -49 -16 -88 -35 -103 -51
-132 -46 -139 25 -2 25 -10 38 -28 47 -35 18 -115 16 -134 -2z m692 -233 c5
-61 -46 -153 -116 -207 -65 -51 -137 -75 -252 -82 -139 -9 -166 20 -115 123
43 86 118 149 227 189 51 19 81 23 158 22 l95 -2 3 -43z m-1073 -272 c137 -18
257 -94 313 -197 18 -34 32 -70 32 -80 0 -26 -29 -51 -67 -59 -45 -9 -200 14
-253 37 -106 47 -216 205 -190 274 13 35 48 40 165 25z m1215 -625 c176 -22
289 -64 357 -132 29 -30 33 -40 33 -87 0 -46 -4 -59 -29 -85 -36 -38 -150 -92
-244 -115 -37 -9 -123 -19 -190 -22 -202 -10 -387 29 -508 107 -192 123 -35
291 311 334 132 17 141 17 270 0z m-1194 -325 c118 -25 170 -43 244 -86 119
-69 122 -168 7 -241 -105 -66 -258 -102 -437 -102 -187 -1 -288 19 -418 82
-125 61 -158 147 -85 222 116 119 435 177 689 125z m651 -224 c177 -62 353
-82 533 -61 143 16 221 33 300 64 69 26 86 26 101 -1 16 -30 5 -131 -17 -162
-37 -49 -158 -105 -288 -132 -108 -23 -334 -23 -431 0 -216 52 -325 131 -325
236 0 39 23 80 45 80 8 0 44 -11 82 -24z m-319 -380 c3 -68 3 -68 -36 -105
-75 -72 -193 -113 -373 -131 -128 -13 -297 -2 -399 27 -82 23 -175 71 -215
112 -35 34 -36 37 -33 101 l3 65 33 3 c18 2 52 -3 75 -11 153 -54 262 -70 447
-64 148 4 222 13 293 36 17 6 59 19 91 29 36 12 69 17 85 13 24 -7 26 -12 29
-75z m1253 -43 c18 -46 4 -131 -26 -163 -24 -25 -119 -80 -139 -80 -4 0 -22
-6 -39 -14 -55 -25 -199 -46 -320 -46 -168 0 -318 34 -427 96 -79 46 -102 74
-108 132 -8 93 24 111 128 71 30 -11 71 -25 90 -29 19 -5 51 -13 70 -18 33 -9
194 -25 250 -25 58 1 240 22 271 31 19 6 66 20 104 32 39 11 77 25 85 30 27
17 50 11 61 -17z"/>
</g>
</svg>
