<?xml version="1.0" standalone="no"?>
<!DOCTYPE svg PUBLIC "-//W3C//DTD SVG 20010904//EN"
 "http://www.w3.org/TR/2001/REC-SVG-20010904/DTD/svg10.dtd">
<svg version="1.0" xmlns="http://www.w3.org/2000/svg"
 width="300.000000pt" height="296.000000pt" viewBox="0 0 300.000000 296.000000"
 preserveAspectRatio="xMidYMid meet">
<metadata>
Created by potrace 1.10, written by Peter Selinger 2001-2011
</metadata>
<g transform="translate(0.000000,296.000000) scale(0.050000,-0.050000)"
fill="#000000" stroke="none">
<path d="M5820 5876 c23 -21 52 -30 72 -22 25 9 30 6 18 -14 -11 -18 -8 -21 9
-11 36 23 -23 77 -87 80 -49 2 -49 1 -12 -33z"/>
<path d="M1694 5267 c-8 -8 -9 -80 -2 -161 l14 -146 -128 1 c-71 1 -198 8
-284 16 -102 9 -162 7 -174 -7 -27 -33 -26 -2193 1 -2296 46 -171 38 -169 863
-184 628 -12 586 -25 566 171 l-14 139 -558 0 -558 0 0 297 c0 163 -6 420 -13
570 l-13 273 1302 0 c716 0 1305 7 1309 15 3 8 3 243 -1 522 l-8 506 -273 -6
-273 -7 -10 150 -10 150 -145 6 -145 6 0 -150 c0 -178 18 -166 -230 -153
l-200 11 0 138 0 138 -140 2 -140 2 0 -150 0 -150 -230 0 -230 0 7 145 7 145
-97 0 c-53 0 -115 5 -138 11 -22 6 -47 5 -55 -4z m1573 -332 c-10 -17 -4 -16
19 2 30 25 34 23 34 -16 0 -24 9 -38 20 -31 11 7 34 -1 51 -18 42 -42 -17
-112 -95 -112 -31 0 -56 -10 -56 -21 0 -26 -40 15 -75 77 -30 52 -32 71 -6 55
10 -6 23 -4 29 6 6 10 36 14 67 9 46 -7 50 -5 20 14 -39 24 -47 60 -14 60 12
0 15 -11 6 -25z m-1351 -48 c30 -28 43 -46 30 -39 -13 7 -33 -3 -44 -23 -12
-19 -21 -27 -21 -18 -1 10 -15 7 -31 -7 -26 -21 -29 -20 -19 5 6 17 -2 35 -20
42 -17 6 -30 5 -28 -3 6 -40 -5 -89 -17 -77 -35 36 -19 134 20 121 24 -8 34
-4 26 8 -10 17 6 32 44 42 3 1 30 -22 60 -51z m642 -14 c2 24 109 26 117 2 17
-50 2 -79 -35 -69 -22 6 -35 2 -29 -8 25 -40 -28 -15 -57 27 -26 39 -36 42
-72 20 -25 -15 -42 -17 -42 -5 0 11 10 20 21 20 12 0 16 9 9 20 -7 11 1 14 20
7 17 -6 30 -4 28 6 -8 46 8 51 22 7 9 -27 17 -40 18 -27z m-854 -270 l6 -73
124 -6 123 -6 7 76 6 76 225 6 225 5 0 -56 c0 -99 70 -126 238 -92 55 11 62
20 62 80 l0 68 195 -5 195 -6 -6 -63 -6 -64 146 -7 c190 -9 195 -7 182 76
l-11 68 153 0 153 0 -5 -215 -6 -215 -1154 -5 -1153 -5 -7 215 c-7 252 -18
237 161 228 l141 -6 6 -74z m-371 -482 c4 -22 9 -51 12 -65 3 -14 -8 -26 -25
-26 -21 0 -32 26 -36 90 -7 92 35 93 49 1z"/>
<path d="M3590 3632 c-296 -48 -495 -139 -638 -292 -111 -118 -120 -196 -109
-973 l7 -537 62 -110 c268 -474 1564 -515 1888 -60 99 139 142 1270 59 1581
-70 268 -749 477 -1269 391z m590 -299 c326 -90 417 -162 403 -318 -9 -97
-400 -215 -716 -215 -518 0 -873 189 -692 369 188 189 646 263 1005 164z m523
-554 c-7 -75 -25 -92 -35 -33 -2 13 -6 33 -8 44 -10 42 1 70 26 70 17 0 23
-25 17 -81z m-1513 -118 c97 -158 1020 -179 1288 -30 106 60 117 51 106 -87
-28 -356 -995 -453 -1386 -140 -58 47 -93 162 -80 261 3 22 58 18 72 -4z
m1499 -394 c-43 -32 -59 -21 -40 27 11 30 16 31 32 5 14 -23 19 -18 21 21 2
40 5 42 12 11 6 -23 -4 -49 -25 -64z m-89 -252 c-1 -142 -15 -164 -157 -241
-472 -255 -1251 -145 -1326 187 -26 117 -9 123 161 66 430 -145 920 -141 1188
10 136 76 134 77 134 -22z"/>
</g>
</svg>
