<?xml version="1.0" standalone="no"?>
<!DOCTYPE svg PUBLIC "-//W3C//DTD SVG 20010904//EN"
 "http://www.w3.org/TR/2001/REC-SVG-20010904/DTD/svg10.dtd">
<svg version="1.0" xmlns="http://www.w3.org/2000/svg"
 width="276.000000pt" height="222.000000pt" viewBox="0 0 276.000000 222.000000"
 preserveAspectRatio="xMidYMid meet">
<metadata>
Created by potrace 1.10, written by Peter Selinger 2001-2011
</metadata>
<g transform="translate(0.000000,222.000000) scale(0.100000,-0.100000)"
fill="#000000" stroke="none">
<path d="M517 1883 c-4 -3 -7 -287 -7 -630 0 -587 1 -623 18 -623 9 -1 187 0
395 0 249 0 384 -3 397 -10 18 -10 20 -21 20 -103 0 -59 -5 -99 -12 -110 -11
-15 -40 -17 -223 -19 l-210 -3 -3 -63 -3 -62 513 2 513 3 0 60 0 60 -220 5
c-121 4 -221 7 -222 8 -2 1 -3 51 -3 111 0 108 0 109 25 115 14 4 191 6 393 6
202 0 375 0 385 0 16 0 17 35 15 628 l-3 627 -881 3 c-484 1 -884 -1 -887 -5z
m1633 -623 l0 -490 -750 0 -750 0 0 483 c0 266 3 487 7 490 3 4 341 7 750 7
l743 0 0 -490z"/>
<path d="M902 1511 c-9 -5 -12 -27 -10 -72 l3 -64 490 -3 c270 -1 500 0 513 3
20 5 22 11 22 69 0 49 -4 65 -16 70 -24 9 -987 7 -1002 -3z"/>
<path d="M894 1126 c-3 -7 -4 -38 -2 -67 l3 -54 325 0 325 0 0 65 0 65 -323 3
c-267 2 -323 0 -328 -12z"/>
</g>
</svg>
