<?xml version="1.0" standalone="no"?>
<!DOCTYPE svg PUBLIC "-//W3C//DTD SVG 20010904//EN"
 "http://www.w3.org/TR/2001/REC-SVG-20010904/DTD/svg10.dtd">
<svg version="1.0" xmlns="http://www.w3.org/2000/svg"
 width="900.000000pt" height="816.000000pt" viewBox="0 0 900.000000 816.000000"
 preserveAspectRatio="xMidYMid meet">
<metadata>
Created by potrace 1.10, written by Peter Selinger 2001-2011
</metadata>
<g transform="translate(0.000000,816.000000) scale(0.100000,-0.100000)"
fill="#000000" stroke="none">
<path d="M2664 7207 c-108 -108 -134 -138 -134 -161 0 -23 36 -64 199 -230
195 -198 217 -226 209 -277 -7 -51 3 -50 -823 -47 -578 2 -775 -1 -791 -9 -39
-22 -46 -61 -42 -235 4 -172 11 -204 51 -213 12 -3 368 -7 792 -8 606 -2 775
-5 793 -15 16 -9 22 -22 22 -47 0 -42 -12 -57 -242 -291 -134 -136 -168 -177
-168 -198 0 -21 25 -53 108 -138 127 -132 174 -168 204 -160 11 3 254 237 540
521 468 466 519 520 525 554 l6 39 -524 524 c-482 482 -528 524 -558 524 -29
0 -49 -16 -167 -133z"/>
<path d="M5340 6210 c-63 -16 -141 -34 -172 -40 -48 -9 -201 -71 -248 -100 -8
-6 -37 -22 -65 -36 -77 -41 -151 -99 -263 -208 -152 -148 -198 -213 -302 -426
-38 -77 -61 -144 -88 -255 -36 -149 -37 -152 -40 -395 -3 -249 7 -397 34 -472
7 -22 19 -70 25 -106 6 -37 22 -89 36 -117 14 -27 34 -72 45 -100 10 -27 29
-66 42 -85 89 -138 109 -185 88 -216 -13 -21 -98 -80 -152 -107 -30 -15 -89
-47 -130 -72 -41 -25 -97 -56 -123 -69 -27 -14 -70 -38 -95 -54 -26 -16 -81
-49 -122 -73 -187 -110 -276 -203 -357 -377 -72 -154 -73 -164 -73 -1185 l0
-878 25 -24 24 -25 2159 0 c1848 0 2161 2 2178 14 19 14 19 37 22 898 2 636 0
904 -9 958 -15 99 -73 288 -97 314 -10 12 -31 42 -45 68 -32 55 -157 174 -247
232 -127 83 -156 101 -206 131 -28 17 -66 39 -83 50 -143 88 -193 119 -240
147 -86 53 -111 80 -111 125 0 21 6 49 14 63 7 14 37 67 65 117 124 222 166
453 158 856 -5 225 -16 345 -41 427 -39 124 -77 223 -100 257 -14 21 -26 43
-26 49 0 7 -27 52 -59 101 -102 155 -304 350 -443 427 -140 77 -259 130 -328
146 -30 7 -93 24 -140 37 -70 20 -113 26 -240 29 -147 4 -161 3 -270 -26z
m460 -474 c167 -42 354 -153 466 -276 115 -126 194 -279 213 -412 6 -42 18
-97 26 -122 13 -37 15 -83 12 -248 -4 -173 -8 -221 -31 -323 -33 -147 -93
-277 -176 -378 -128 -158 -212 -218 -409 -296 -204 -81 -449 -80 -651 2 -129
52 -185 85 -274 159 -121 102 -206 223 -274 394 -33 84 -42 120 -51 220 -14
138 -14 297 -1 465 9 103 15 129 55 229 50 125 79 176 143 252 23 29 42 55 42
59 0 10 127 114 193 158 28 18 80 44 115 58 36 13 78 31 95 39 47 25 108 32
287 33 111 0 183 -4 220 -13z m636 -2428 c43 -23 100 -55 126 -72 26 -17 71
-46 100 -64 29 -18 83 -51 120 -75 36 -23 81 -51 99 -62 18 -11 55 -34 83 -52
28 -18 73 -45 99 -60 141 -81 213 -170 228 -281 6 -41 9 -330 7 -688 -3 -562
-5 -622 -20 -650 -10 -17 -25 -34 -33 -38 -9 -3 -752 -6 -1651 -6 -1465 0
-1638 2 -1673 16 -75 30 -72 2 -69 721 l3 638 28 64 c15 36 37 76 50 89 31 33
120 92 197 131 82 41 132 69 194 109 28 18 54 32 59 32 4 0 27 13 50 29 23 15
65 40 92 53 120 61 162 85 200 110 22 16 61 35 87 44 45 14 52 14 123 -5 42
-12 98 -33 126 -46 27 -14 86 -32 132 -41 45 -8 114 -25 152 -37 58 -18 95
-22 210 -22 249 0 426 45 725 184 25 11 52 21 61 21 9 0 51 -19 95 -42z"/>
</g>
</svg>
