<?xml version="1.0" standalone="no"?>
<!DOCTYPE svg PUBLIC "-//W3C//DTD SVG 20010904//EN"
 "http://www.w3.org/TR/2001/REC-SVG-20010904/DTD/svg10.dtd">
<svg version="1.0" xmlns="http://www.w3.org/2000/svg"
 width="300.000000pt" height="331.000000pt" viewBox="0 0 300.000000 331.000000"
 preserveAspectRatio="xMidYMid meet">
<metadata>
Created by potrace 1.10, written by Peter Selinger 2001-2011
</metadata>
<g transform="translate(0.000000,331.000000) scale(0.100000,-0.100000)"
fill="#000000" stroke="none">
<path d="M254 3042 c-6 -4 -19 -21 -28 -39 -15 -29 -16 -139 -16 -1228 0
-1053 2 -1204 16 -1253 33 -122 89 -192 197 -246 l72 -37 1025 3 c990 3 1026
4 1060 22 66 36 125 87 158 137 58 85 65 127 69 396 5 298 12 283 -132 283
-52 0 -96 1 -97 3 -2 1 -5 443 -8 982 l-5 980 -1150 2 c-632 2 -1155 -1 -1161
-5z m2044 -240 c10 -7 12 -186 10 -863 l-3 -854 -794 -3 c-722 -2 -796 -4
-813 -19 -16 -15 -18 -37 -19 -242 0 -256 -5 -283 -59 -314 -59 -33 -124 -2
-140 68 -6 23 -10 507 -10 1132 0 1031 1 1092 18 1096 31 8 1797 7 1810 -1z
m226 -1988 c13 -5 16 -26 16 -123 0 -64 -3 -125 -6 -136 -3 -11 -20 -30 -39
-42 l-35 -23 -771 0 -771 0 7 28 c5 15 10 83 12 152 2 68 9 130 15 137 8 10
168 13 783 13 426 0 780 -3 789 -6z"/>
<path d="M698 2579 c-15 -9 -18 -26 -18 -119 0 -105 1 -110 23 -115 12 -3 94
-4 182 -3 l160 3 3 109 c2 71 -1 113 -9 122 -9 11 -46 14 -168 14 -87 0 -164
-5 -173 -11z"/>
<path d="M693 2113 c-9 -3 -13 -36 -13 -113 0 -98 2 -110 19 -120 26 -13 1349
-14 1385 0 26 9 26 11 26 114 0 94 -2 106 -19 116 -20 10 -1373 14 -1398 3z"/>
<path d="M684 1637 c-2 -7 -3 -60 -2 -118 l3 -104 455 -3 c250 -1 465 0 478 3
22 5 23 8 20 118 l-3 112 -473 3 c-385 2 -473 0 -478 -11z"/>
</g>
</svg>
