<?xml version="1.0" standalone="no"?>
<!DOCTYPE svg PUBLIC "-//W3C//DTD SVG 20010904//EN"
 "http://www.w3.org/TR/2001/REC-SVG-20010904/DTD/svg10.dtd">
<svg version="1.0" xmlns="http://www.w3.org/2000/svg"
 width="330.000000pt" height="357.000000pt" viewBox="0 0 330.000000 357.000000"
 preserveAspectRatio="xMidYMid meet">
<metadata>
Created by potrace 1.10, written by Peter Selinger 2001-2011
</metadata>
<g transform="translate(0.000000,357.000000) scale(0.100000,-0.100000)"
fill="#000000" stroke="none">
<path d="M655 2981 c-140 -5 -166 -9 -207 -29 -56 -28 -91 -71 -106 -134 -17
-66 -17 -2004 -1 -2131 12 -87 13 -90 59 -135 28 -29 63 -52 88 -59 59 -18
1505 -19 1566 -1 57 17 104 54 127 101 15 33 19 62 19 154 0 161 -14 153 248
153 264 0 294 9 363 104 l29 39 0 679 c0 648 -1 680 -19 716 -53 103 -111 122
-382 122 -153 0 -199 3 -215 14 -17 13 -20 31 -24 143 -5 135 -15 166 -62 210
-61 56 -52 55 -713 57 -335 2 -682 0 -770 -3z m1320 -191 c49 -1 49 2 48 -320
-1 -209 -5 -306 -13 -314 -18 -18 -121 -21 -798 -21 -535 0 -652 2 -665 14
-15 12 -17 47 -17 322 l0 309 23 5 c35 8 248 10 847 8 305 -1 564 -2 575 -3z
m661 -431 c26 -29 32 -144 10 -187 l-17 -32 -192 0 c-230 0 -229 0 -235 88 -6
84 3 127 31 140 13 6 96 11 203 11 171 1 182 0 200 -20z m-629 -419 c21 -19
21 -23 22 -634 l1 -614 -31 -11 c-36 -12 -1395 -14 -1439 -2 l-25 7 -3 624
c-2 579 -1 626 15 638 13 9 175 12 728 12 692 0 712 -1 732 -20z m628 0 c16
-18 18 -49 17 -420 -1 -294 -4 -405 -13 -416 -17 -21 -386 -21 -415 0 -18 14
-19 30 -19 421 0 391 1 407 19 421 16 11 61 14 206 14 173 0 188 -1 205 -20z"/>
<path d="M1650 2548 c-22 -12 -25 -21 -28 -72 -4 -75 6 -86 79 -86 47 0 60 4
69 19 14 27 13 104 -2 124 -18 22 -87 31 -118 15z"/>
<path d="M774 1698 c-11 -17 -7 -129 4 -140 5 -5 42 -8 83 -6 l74 3 3 63 c2
38 -2 69 -9 78 -15 18 -144 20 -155 2z"/>
<path d="M1202 1698 c-18 -18 -15 -123 4 -139 21 -17 116 -18 137 0 20 16 24
120 5 139 -7 7 -39 12 -73 12 -34 0 -66 -5 -73 -12z"/>
<path d="M1622 1698 c-7 -7 -12 -36 -12 -65 0 -76 23 -98 93 -88 70 9 77 17
77 86 0 47 -4 60 -19 69 -27 14 -124 13 -139 -2z"/>
<path d="M783 1389 c-17 -17 -17 -131 -1 -147 16 -16 130 -16 146 0 14 14 16
116 3 137 -13 20 -131 28 -148 10z"/>
<path d="M1206 1384 c-11 -10 -16 -34 -16 -69 0 -70 15 -85 85 -85 70 0 85 15
85 85 0 44 -4 57 -22 69 -30 21 -112 21 -132 0z"/>
<path d="M1626 1384 c-21 -20 -21 -102 0 -132 12 -18 25 -22 69 -22 70 0 85
15 85 85 0 44 -4 57 -22 69 -30 21 -112 21 -132 0z"/>
<path d="M782 1078 c-7 -7 -12 -41 -12 -85 0 -84 8 -93 85 -93 77 0 85 9 85
95 0 63 -3 76 -19 85 -27 14 -124 13 -139 -2z"/>
<path d="M1207 1072 c-21 -23 -23 -120 -4 -146 19 -26 99 -33 132 -12 22 15
25 23 25 80 0 79 -15 96 -87 96 -36 0 -55 -5 -66 -18z"/>
<path d="M1625 1070 c-24 -27 -17 -136 10 -156 25 -19 95 -18 123 2 19 13 22
24 22 78 0 79 -15 96 -87 96 -37 0 -55 -5 -68 -20z"/>
</g>
</svg>
