<?xml version="1.0" standalone="no"?>
<!DOCTYPE svg PUBLIC "-//W3C//DTD SVG 20010904//EN"
 "http://www.w3.org/TR/2001/REC-SVG-20010904/DTD/svg10.dtd">
<svg version="1.0" xmlns="http://www.w3.org/2000/svg"
 width="110.000000pt" height="119.000000pt" viewBox="0 0 110.000000 119.000000"
 preserveAspectRatio="xMidYMid meet">
<metadata>
Created by potrace 1.10, written by Peter Selinger 2001-2011
</metadata>
<g transform="translate(0.000000,119.000000) scale(0.050000,-0.050000)"
fill="#000000" stroke="none">
<path d="M306 1980 c-85 -34 -88 -65 -82 -842 l6 -742 47 -38 c44 -35 86 -38
586 -38 l539 0 50 50 c28 28 45 59 38 70 -18 30 -50 24 -50 -9 0 -81 -67 -91
-587 -91 l-498 0 -51 56 -50 55 -3 700 c-2 384 5 718 15 742 34 79 84 87 604
92 l500 6 -510 3 c-280 2 -530 -4 -554 -14z"/>
<path d="M1400 1960 c0 -11 8 -20 18 -20 9 0 24 -20 32 -45 12 -39 15 -40 24
-9 10 37 -25 94 -56 94 -10 0 -18 -9 -18 -20z"/>
<path d="M375 1886 c-104 -28 14 -35 461 -30 l496 5 -1 -195 c-1 -108 -10
-208 -19 -223 -12 -19 -7 -25 21 -20 44 9 68 398 26 448 -21 26 -893 40 -984
15z"/>
<path d="M1084 1651 c4 -39 16 -51 52 -51 26 0 41 9 34 20 -7 12 -21 15 -31 9
-11 -6 -19 2 -19 19 0 16 -9 35 -20 42 -11 7 -18 -9 -16 -39z"/>
<path d="M1811 1681 c-6 -10 5 -24 26 -30 30 -10 38 -33 40 -112 1 -62 -5 -96
-17 -89 -13 8 -13 -6 0 -40 11 -29 20 -200 20 -380 l0 -327 -58 -42 c-47 -33
-89 -41 -210 -41 -101 0 -152 -8 -152 -23 0 -40 361 -5 405 39 42 42 55 949
15 1024 -23 43 -51 51 -69 21z"/>
<path d="M1480 1597 c0 -10 62 -17 138 -17 139 0 197 -47 151 -121 -17 -28
-256 -24 -285 5 -19 19 -24 16 -24 -11 0 -31 19 -34 165 -29 l165 6 2 70 c1
39 -6 80 -16 93 -20 26 -296 29 -296 4z"/>
<path d="M385 1429 c13 -14 718 -13 732 1 5 6 -160 10 -367 10 -207 0 -372 -5
-365 -11z"/>
<path d="M360 1315 c0 -19 110 -25 485 -25 l485 0 5 -385 c3 -212 14 -385 24
-385 25 0 27 702 2 767 l-20 53 -491 0 c-379 0 -490 -6 -490 -25z"/>
<path d="M1480 1316 c0 -19 32 -24 122 -19 161 9 163 5 160 -260 -1 -125 6
-240 17 -257 27 -40 28 469 2 518 -24 46 -301 62 -301 18z"/>
<path d="M792 1147 c-31 -81 49 -173 103 -119 22 23 27 112 6 112 -11 0 -15
-13 -8 -30 6 -17 -3 -35 -22 -42 -46 -18 -64 7 -36 51 18 29 17 40 -4 48 -15
6 -33 -3 -39 -20z"/>
<path d="M494 1120 c-10 -38 31 -102 62 -99 60 7 89 36 37 38 -50 1 -56 7 -48
51 12 61 -35 70 -51 10z"/>
<path d="M1068 1109 c-16 -63 12 -95 75 -86 47 7 83 97 38 97 -11 0 -21 -13
-21 -30 0 -16 -13 -30 -30 -30 -36 0 -39 43 -6 76 19 19 17 24 -10 24 -19 0
-39 -22 -46 -51z"/>
<path d="M504 887 c9 -75 65 -107 110 -62 33 33 32 35 -22 35 -47 0 -55 7 -46
40 7 27 0 40 -19 40 -20 0 -28 -17 -23 -53z"/>
<path d="M780 891 c0 -55 59 -98 109 -79 48 19 37 48 -19 48 -37 0 -50 11 -50
40 0 22 -9 40 -20 40 -11 0 -20 -22 -20 -49z"/>
<path d="M1073 927 c-51 -52 21 -143 86 -108 57 31 52 57 -9 46 -54 -10 -65
12 -26 51 19 19 17 24 -7 24 -17 0 -36 -6 -44 -13z"/>
<path d="M1480 737 c0 -25 54 -33 122 -18 68 14 68 14 -27 23 -52 4 -95 2 -95
-5z"/>
<path d="M513 727 c-56 -56 21 -156 97 -126 40 16 40 16 -1 18 -68 2 -94 42
-56 85 33 36 -5 58 -40 23z"/>
<path d="M792 708 c-18 -47 -15 -62 18 -95 36 -36 110 -20 110 24 -1 25 -5 27
-17 7 -19 -29 -83 -11 -83 24 0 13 11 35 24 48 19 19 17 24 -8 24 -17 0 -37
-14 -44 -32z"/>
</g>
</svg>
