<?xml version="1.0" standalone="no"?>
<!DOCTYPE svg PUBLIC "-//W3C//DTD SVG 20010904//EN"
 "http://www.w3.org/TR/2001/REC-SVG-20010904/DTD/svg10.dtd">
<svg version="1.0" xmlns="http://www.w3.org/2000/svg"
 width="298.000000pt" height="253.000000pt" viewBox="0 0 298.000000 253.000000"
 preserveAspectRatio="xMidYMid meet">
<metadata>
Created by potrace 1.10, written by Peter Selinger 2001-2011
</metadata>
<g transform="translate(0.000000,253.000000) scale(0.100000,-0.100000)"
fill="#000000" stroke="none">
<path d="M610 2023 c0 -5 142 -197 316 -428 353 -471 359 -479 347 -499 -8
-13 -218 -246 -354 -390 -36 -39 -90 -98 -120 -131 -30 -33 -85 -93 -124 -133
-78 -82 -77 -92 8 -92 42 0 53 5 80 33 50 51 277 295 342 367 142 158 234 250
249 250 8 0 81 -88 162 -197 269 -362 327 -438 338 -445 17 -12 499 -5 502 7
2 6 -156 223 -351 484 -195 260 -355 477 -355 482 0 8 44 57 186 209 33 36 85
92 115 125 30 33 114 123 187 201 73 78 132 146 132 153 0 7 -23 11 -64 11
l-65 0 -102 -112 c-290 -317 -444 -478 -459 -478 -14 0 -89 96 -329 420 -46
63 -96 127 -110 143 l-25 27 -253 0 c-139 0 -253 -3 -253 -7z m502 -157 c24
-29 138 -181 254 -337 116 -156 318 -428 449 -604 131 -176 258 -346 282 -379
59 -79 52 -86 -83 -86 -84 0 -106 3 -120 17 -10 10 -76 97 -147 193 -72 96
-190 256 -264 355 -73 99 -149 200 -168 225 -64 83 -452 606 -469 632 -9 13
-13 28 -9 31 3 4 57 7 119 7 l113 0 43 -54z"/>
</g>
</svg>
